<svg width="64" height="65" viewBox="0 0 64 65" fill="none" xmlns="http://www.w3.org/2000/svg">
<path d="M8.19312 97.3808H42.3181C48.8669 97.3808 48.8669 86.0475 42.3181 86.0475H32.5681V77.2429C32.5681 74.2629 31.37 71.476 27.6931 71.476H22.8181C21.5277 71.4842 20.2925 71.9985 19.38 72.9077C18.4675 73.8168 17.9513 75.0475 17.9431 76.3332V86.0475H8.19312C1.64437 86.0475 1.64437 97.3808 8.19312 97.3808ZM47.183 61.7617C49.3995 62.9573 51.9417 63.4152 54.438 63.0686C56.9344 62.7219 59.254 61.5889 61.0579 59.8351C65.734 54.8727 65.1786 45.7272 59.5079 41.7234C57.6462 40.4926 55.4764 39.8043 53.2432 39.7361C51.0099 39.6679 48.802 40.2225 46.8681 41.3375C44.8362 42.7098 43.2664 44.6603 42.3634 46.9346C41.4604 49.2089 41.2661 51.7015 41.8058 54.0875L26.2192 68.2379C29.8952 68.2379 33.2625 69.2837 34.9868 72.8338L47.183 61.7617ZM52.8837 57.0989C45.4635 57.0989 45.7639 45.8034 52.8837 45.8034C60.0868 45.8021 60.0868 57.0974 52.8839 57.0974L52.8837 57.0989ZM52.8837 49.0415C53.5123 49.0607 54.1087 49.323 54.5465 49.7728C54.9843 50.2226 55.2291 50.8246 55.2291 51.4512C55.2291 52.0777 54.9843 52.6797 54.5465 53.1295C54.1087 53.5793 53.5123 53.8416 52.8837 53.8608C52.2505 53.8481 51.6476 53.5886 51.2043 53.1379C50.761 52.6873 50.5127 52.0814 50.5127 51.4504C50.5128 50.8194 50.7611 50.2136 51.2044 49.763C51.6477 49.3124 52.2507 49.0529 52.8839 49.0402L52.8837 49.0415ZM52.9718 20.7224L47.3844 22.8827L52.4178 36.5459C49.2344 36.6404 46.1654 37.7494 43.6613 39.7101L38.6991 26.2398L27.7567 30.4707C27.0028 33.26 25.6053 35.8353 23.6757 37.9913C21.7461 40.1473 19.3377 41.8243 16.6425 42.8888C16.2401 43.0382 15.7952 43.0252 15.4024 42.8524C15.0096 42.6796 14.7001 42.3608 14.5399 41.9639L2.28981 10.5119C2.13393 10.1117 2.14393 9.66625 2.31762 9.27341C2.49132 8.88057 2.81448 8.57254 3.21606 8.41704C6.01986 7.35666 9.03891 6.98539 12.0173 7.33467C14.9958 7.68396 17.8458 8.7435 20.3259 10.4235L45.2134 0.800873C55.4281 -3.13956 63.4465 16.6648 52.9719 20.7211L52.9718 20.7224ZM2.56428 20.1702L7.95668 34.0147C6.35032 34.0026 4.78464 33.51 3.46256 32.6008C2.14049 31.6917 1.12297 30.4078 0.541897 28.9157C-0.0391769 27.4235 -0.157028 25.7919 0.203625 24.2322C0.564278 22.6726 1.38681 21.2568 2.56461 20.1684L2.56428 20.1702Z" fill="#959697"/>
</svg>
