<svg width="28" height="28" viewBox="0 0 28 28" fill="none" xmlns="http://www.w3.org/2000/svg">
<g clip-path="url(#clip0_2767_1582)">
<path d="M27.7608 13.3766L19.3612 4.04374C19.182 3.84588 18.9319 3.73389 18.6668 3.73389H13.0671C12.8869 3.73408 12.7105 3.78632 12.5591 3.88433C12.4078 3.98234 12.288 4.12195 12.2141 4.28639C12.0648 4.62424 12.1264 5.01808 12.3728 5.2906L20.2105 14L12.3728 22.7075C12.1264 22.9819 12.0629 23.3758 12.2141 23.7117C12.3653 24.0496 12.6994 24.2661 13.0671 24.2661H18.6668C18.9319 24.2661 19.182 24.1522 19.3612 23.9581L27.7608 14.6253C28.0799 14.2706 28.0799 13.7293 27.7608 13.3766Z" fill="white"/>
<path d="M15.6279 13.3766L7.22839 4.04374C7.0492 3.84588 6.79908 3.73389 6.53403 3.73389H0.934332C0.754048 3.73408 0.577653 3.78632 0.426336 3.88433C0.275018 3.98234 0.155214 4.12195 0.0813118 4.28639C-0.0680134 4.62424 -0.00641674 5.01808 0.23997 5.2906L8.07768 14L0.23997 22.7075C-0.00641674 22.9819 -0.06988 23.3758 0.0813118 23.7117C0.232504 24.0496 0.566619 24.2661 0.934332 24.2661H6.53403C6.79908 24.2661 7.0492 24.1522 7.22839 23.9581L15.6279 14.6253C15.9471 14.2706 15.9471 13.7293 15.6279 13.3766Z" fill="white"/>
</g>
<defs>
<clipPath id="clip0_2767_1582">
<rect width="28" height="28" fill="white"/>
</clipPath>
</defs>
</svg>
