<svg width="42" height="48" viewBox="0 0 42 48" fill="none" xmlns="http://www.w3.org/2000/svg">
<g id="Group">
<path id="Vector" d="M21.0008 48C21.1943 48 21.3856 47.9601 21.5629 47.8828C21.7402 47.8055 21.8997 47.6924 22.0313 47.5507L41.6125 26.4631C41.7987 26.2625 41.9224 26.012 41.9683 25.7422C42.0143 25.4723 41.9805 25.195 41.8711 24.9441C41.7616 24.6932 41.5814 24.4797 41.3524 24.3297C41.1235 24.1798 40.8557 24.0999 40.582 24.0999H34.457V4.41881C34.457 1.98234 32.4749 0 30.0383 0H11.9633C9.52684 0 7.54459 1.98234 7.54459 4.41881V24.1H1.41962C1.14592 24.1 0.878166 24.1799 0.649193 24.3298C0.420216 24.4798 0.239979 24.6933 0.130573 24.9442C0.0211716 25.1951 -0.0126419 25.4724 0.033287 25.7422C0.0792122 26.0121 0.202881 26.2626 0.389126 26.4632L19.9703 47.5507C20.1019 47.6924 20.2614 47.8055 20.4387 47.8828C20.616 47.9601 20.8074 48 21.0008 48Z" fill="#01AFEC"/>
</g>
</svg>
