<svg width="24" height="24" viewBox="0 0 24 24" fill="none" xmlns="http://www.w3.org/2000/svg">
<path d="M6.16667 21H17.8333C18.1428 21 18.4395 20.8815 18.6583 20.6705C18.8771 20.4595 19 20.1734 19 19.875V7.5C19 7.20163 18.8771 6.91548 18.6583 6.7045C18.4395 6.49353 18.1428 6.375 17.8333 6.375H15.4942C15.4662 4.50637 13.9145 3 12 3C10.0855 3 8.53383 4.50637 8.50583 6.375H6.16667C5.85725 6.375 5.5605 6.49353 5.34171 6.7045C5.12292 6.91548 5 7.20163 5 7.5V19.875C5 20.1734 5.12292 20.4595 5.34171 20.6705C5.5605 20.8815 5.85725 21 6.16667 21ZM13.75 9.75H10.25C10.0953 9.75 9.94692 9.69074 9.83752 9.58525C9.72812 9.47976 9.66667 9.33668 9.66667 9.1875C9.66667 9.03832 9.72812 8.89524 9.83752 8.78975C9.94692 8.68426 10.0953 8.625 10.25 8.625H13.75C13.9047 8.625 14.0531 8.68426 14.1625 8.78975C14.2719 8.89524 14.3333 9.03832 14.3333 9.1875C14.3333 9.33668 14.2719 9.47976 14.1625 9.58525C14.0531 9.69074 13.9047 9.75 13.75 9.75ZM12 4.125C13.2682 4.125 14.2995 5.12963 14.3275 6.375H9.6725C9.7005 5.12963 10.7318 4.125 12 4.125Z" fill="white"/>
</svg>
