<svg width="32" height="32" viewBox="0 0 32 32" fill="none" xmlns="http://www.w3.org/2000/svg">
<path d="M26.053 24.955C25.1277 24.3712 24.2046 23.7852 23.2794 23.2014C23.1494 23.1199 23.0194 23.0361 22.8894 22.9546C22.5678 22.752 22.0985 22.752 21.7769 22.9546C20.8516 23.5384 19.9286 24.1244 19.0033 24.7082C18.8733 24.7898 18.7433 24.8735 18.6134 24.955C18.9835 24.955 19.3536 24.955 19.7259 24.955C18.8006 24.3712 17.8776 23.7852 16.9523 23.2014C16.8223 23.1199 16.6923 23.0361 16.5624 22.9546C16.2407 22.752 15.7715 22.752 15.4498 22.9546C14.5246 23.5384 13.6015 24.1244 12.6762 24.7082C12.5462 24.7898 12.4163 24.8735 12.2863 24.955C12.6564 24.955 13.0265 24.955 13.3988 24.955C12.4735 24.3712 11.5505 23.7852 10.6252 23.2014C10.4952 23.1199 10.3653 23.0361 10.2353 22.9546C9.91363 22.752 9.44439 22.752 9.12275 22.9546C8.19748 23.5384 7.27441 24.1244 6.34914 24.7082C6.21917 24.7898 6.08919 24.8735 5.95921 24.955C6.51217 25.2722 7.06513 25.5894 7.61588 25.9067C7.61588 25.7415 7.61588 25.5784 7.61588 25.4132C7.61588 24.9638 7.61588 24.5144 7.61588 24.0672C7.61588 23.4063 7.61588 22.7453 7.61588 22.0844C7.61588 21.2781 7.61588 20.474 7.61588 19.6677C7.61588 18.7865 7.61588 17.9053 7.61588 17.0263C7.61588 16.1363 7.61588 15.2441 7.61588 14.354C7.61588 13.5301 7.61588 12.7062 7.61588 11.88C7.61588 11.1883 7.61588 10.4943 7.61588 9.80259C7.61588 9.31131 7.61588 8.81784 7.61588 8.32656C7.61588 8.10406 7.61588 7.88155 7.61588 7.65905C7.61588 7.58194 7.62029 7.50484 7.6313 7.42773C7.61808 7.52466 7.60487 7.6238 7.59165 7.72073C7.61148 7.58415 7.64893 7.45196 7.7018 7.32639C7.66435 7.41451 7.6269 7.50263 7.59165 7.58855C7.64672 7.46518 7.71502 7.35062 7.79653 7.24268C7.73925 7.31758 7.68197 7.39028 7.62469 7.46518C7.7018 7.36825 7.78992 7.28013 7.88685 7.20302C7.81195 7.2603 7.73925 7.31758 7.66435 7.37486C7.7723 7.29335 7.88465 7.22505 8.01022 7.16998C7.9221 7.20743 7.83398 7.24488 7.74806 7.28013C7.87584 7.22726 8.00582 7.1898 8.1424 7.16998C8.04547 7.1832 7.94633 7.19641 7.8494 7.20963C8.04547 7.1854 8.24595 7.19421 8.44201 7.19421C8.82093 7.19421 9.20206 7.19421 9.58098 7.19421C10.1516 7.19421 10.7243 7.19421 11.2949 7.19421C11.9999 7.19421 12.7071 7.19421 13.412 7.19421C14.1831 7.19421 14.9541 7.19421 15.7252 7.19421C16.5051 7.19421 17.2827 7.19421 18.0626 7.19421C18.7874 7.19421 19.5122 7.19421 20.237 7.19421C20.8472 7.19421 21.4553 7.19421 22.0655 7.19421C22.4995 7.19421 22.9313 7.19421 23.3653 7.19421C23.5614 7.19421 23.7552 7.19421 23.9513 7.19421C24.0262 7.19421 24.1033 7.19862 24.1782 7.20963C24.0813 7.19641 23.9821 7.1832 23.8852 7.16998C24.0218 7.1898 24.154 7.22726 24.2795 7.28013C24.1914 7.24268 24.1033 7.20523 24.0174 7.16998C24.1408 7.22505 24.2553 7.29335 24.3633 7.37486C24.2884 7.31758 24.2157 7.2603 24.1408 7.20302C24.2377 7.28013 24.3258 7.36825 24.4029 7.46518C24.3456 7.39028 24.2884 7.31758 24.2311 7.24268C24.3126 7.35062 24.3809 7.46298 24.436 7.58855C24.3985 7.50043 24.3611 7.41231 24.3258 7.32639C24.3787 7.45417 24.4161 7.58415 24.436 7.72073C24.4227 7.6238 24.4095 7.52466 24.3963 7.42773C24.4227 7.64142 24.4117 7.86393 24.4117 8.07982C24.4117 8.51382 24.4117 8.95002 24.4117 9.38401C24.4117 10.0339 24.4117 10.686 24.4117 11.3359C24.4117 12.1356 24.4117 12.9331 24.4117 13.7328C24.4117 14.6118 24.4117 15.4886 24.4117 16.3676C24.4117 17.2598 24.4117 18.152 24.4117 19.0443C24.4117 19.8748 24.4117 20.7031 24.4117 21.5337C24.4117 22.2364 24.4117 22.937 24.4117 23.6398C24.4117 24.1443 24.4117 24.651 24.4117 25.1555C24.4117 25.3956 24.4095 25.6357 24.4117 25.8758C24.4117 25.8869 24.4117 25.8957 24.4117 25.9067C24.4117 26.1887 24.5351 26.4861 24.7334 26.6866C24.925 26.8782 25.2379 27.0214 25.5132 27.0082C25.7974 26.995 26.0926 26.9024 26.2931 26.6866C26.4914 26.4707 26.6147 26.2063 26.6147 25.9067C26.6147 25.5498 26.6147 25.1929 26.6147 24.836C26.6147 23.9218 26.6147 23.0075 26.6147 22.0933C26.6147 20.8529 26.6147 19.6126 26.6147 18.3745C26.6147 17.0373 26.6147 15.7023 26.6147 14.365C26.6147 13.1732 26.6147 11.9814 26.6147 10.7895C26.6147 9.97002 26.6147 9.15049 26.6147 8.33317C26.6147 8.1371 26.6147 7.93883 26.6147 7.74276C26.6147 7.70972 26.6147 7.67667 26.6147 7.64583C26.6103 7.04881 26.4121 6.49365 26.0486 6.02441C25.5331 5.35689 24.7466 5 23.9072 5C23.7134 5 23.5195 5 23.3234 5C22.4576 5 21.5919 5 20.7261 5C19.4792 5 18.2322 5 16.9853 5C15.6613 5 14.3373 5 13.0133 5C11.9272 5 10.8411 5 9.75281 5C9.20646 5 8.66232 5 8.11597 5C7.9199 5 7.72383 5.02644 7.52996 5.05728C6.81618 5.16963 6.23018 5.63447 5.83364 6.20065C5.5186 6.65227 5.40625 7.21183 5.40625 7.75598C5.40625 8.31555 5.40625 8.87291 5.40625 9.43248C5.40625 10.4745 5.40625 11.5187 5.40625 12.5608C5.40625 13.8561 5.40625 15.1493 5.40625 16.4447C5.40625 17.7577 5.40625 19.0729 5.40625 20.3859C5.40625 21.4852 5.40625 22.5867 5.40625 23.686C5.40625 24.3403 5.40625 24.9946 5.40625 25.6467C5.40625 25.7348 5.40625 25.8208 5.40625 25.9089C5.40625 26.2966 5.61774 26.6645 5.9526 26.8606C6.28305 27.0545 6.73467 27.0699 7.06513 26.8606C7.9904 26.2768 8.91346 25.6908 9.83873 25.107C9.96871 25.0255 10.0987 24.9418 10.2287 24.8602C9.85856 24.8602 9.48845 24.8602 9.11614 24.8602C10.0414 25.444 10.9645 26.0301 11.8897 26.6139C12.0197 26.6954 12.1497 26.7791 12.2797 26.8606C12.6013 27.0633 13.0706 27.0633 13.3922 26.8606C14.3175 26.2768 15.2405 25.6908 16.1658 25.107C16.2958 25.0255 16.4258 24.9418 16.5557 24.8602C16.1856 24.8602 15.8155 24.8602 15.4432 24.8602C16.3685 25.444 17.2916 26.0301 18.2168 26.6139C18.3468 26.6954 18.4768 26.7791 18.6068 26.8606C18.9284 27.0633 19.3976 27.0633 19.7193 26.8606C20.6446 26.2768 21.5676 25.6908 22.4929 25.107C22.6229 25.0255 22.7528 24.9418 22.8828 24.8602C22.5127 24.8602 22.1426 24.8602 21.7703 24.8602C22.6956 25.444 23.6186 26.0301 24.5439 26.6139C24.6739 26.6954 24.8039 26.7791 24.9338 26.8606C25.1696 27.0104 25.5154 27.0456 25.782 26.9707C26.0376 26.9002 26.3151 26.702 26.4407 26.464C26.7359 25.9199 26.5751 25.2854 26.053 24.955Z" fill="#01AFEC"/>
<path d="M10.8094 12.9418C11.1531 12.9418 11.4967 12.9418 11.8404 12.9418C12.6687 12.9418 13.4971 12.9418 14.3254 12.9418C15.3256 12.9418 16.3236 12.9418 17.3237 12.9418C18.1895 12.9418 19.0575 12.9418 19.9233 12.9418C20.3419 12.9418 20.7626 12.9462 21.1812 12.9418C21.1878 12.9418 21.1922 12.9418 21.1988 12.9418C21.4808 12.9418 21.7782 12.8184 21.9787 12.6202C22.1704 12.4285 22.3136 12.1157 22.3004 11.8403C22.2871 11.5561 22.1946 11.2609 21.9787 11.0604C21.7628 10.8621 21.4985 10.7388 21.1988 10.7388C20.8552 10.7388 20.5115 10.7388 20.1678 10.7388C19.3395 10.7388 18.5112 10.7388 17.6828 10.7388C16.6826 10.7388 15.6847 10.7388 14.6845 10.7388C13.8187 10.7388 12.9507 10.7388 12.0849 10.7388C11.6664 10.7388 11.2456 10.7344 10.827 10.7388C10.8204 10.7388 10.816 10.7388 10.8094 10.7388C10.5274 10.7388 10.23 10.8621 10.0295 11.0604C9.83786 11.2521 9.69466 11.5649 9.70788 11.8403C9.7211 12.1245 9.81362 12.4197 10.0295 12.6202C10.2454 12.8162 10.5098 12.9418 10.8094 12.9418ZM21.1988 16.2816C20.8552 16.2816 20.5115 16.2816 20.1678 16.2816C19.3395 16.2816 18.5112 16.2816 17.6828 16.2816C16.6826 16.2816 15.6847 16.2816 14.6845 16.2816C13.8187 16.2816 12.9507 16.2816 12.0849 16.2816C11.6664 16.2816 11.2456 16.2772 10.827 16.2816C10.8204 16.2816 10.816 16.2816 10.8094 16.2816C10.5274 16.2816 10.23 16.4049 10.0295 16.6032C9.83786 16.7949 9.69466 17.1077 9.70788 17.3831C9.7211 17.6673 9.81362 17.9625 10.0295 18.163C10.2454 18.3612 10.5098 18.4846 10.8094 18.4846C11.1531 18.4846 11.4967 18.4846 11.8404 18.4846C12.6687 18.4846 13.4971 18.4846 14.3254 18.4846C15.3256 18.4846 16.3236 18.4846 17.3237 18.4846C18.1895 18.4846 19.0575 18.4846 19.9233 18.4846C20.3419 18.4846 20.7626 18.489 21.1812 18.4846C21.1878 18.4846 21.1922 18.4846 21.1988 18.4846C21.4808 18.4846 21.7782 18.3612 21.9787 18.163C22.1704 17.9713 22.3136 17.6585 22.3004 17.3831C22.2871 17.0989 22.1946 16.8037 21.9787 16.6032C21.7628 16.4049 21.4985 16.2816 21.1988 16.2816Z" fill="#01AFEC"/>
</svg>
