<svg width="32" height="32" viewBox="0 0 32 32" fill="none" xmlns="http://www.w3.org/2000/svg">
<path d="M27.375 20.4375H26.75V16.0037C26.75 15.4828 26.5508 14.9824 26.1992 14.6133L22.2969 10.5158C21.9453 10.1467 21.4688 9.9375 20.9727 9.9375H19.25V7.96875C19.25 6.88184 18.4102 6 17.375 6H4.875C3.83984 6 3 6.88184 3 7.96875V21.0938C3 22.1807 3.83984 23.0625 4.875 23.0625H5.5C5.5 25.2363 7.17969 27 9.25 27C11.3203 27 13 25.2363 13 23.0625H18C18 25.2363 19.6797 27 21.75 27C23.8203 27 25.5 25.2363 25.5 23.0625H27.375C27.7188 23.0625 28 22.7672 28 22.4062V21.0938C28 20.7328 27.7188 20.4375 27.375 20.4375ZM9.25 25.0312C8.21484 25.0312 7.375 24.1494 7.375 23.0625C7.375 21.9756 8.21484 21.0938 9.25 21.0938C10.2852 21.0938 11.125 21.9756 11.125 23.0625C11.125 24.1494 10.2852 25.0312 9.25 25.0312ZM21.75 25.0312C20.7148 25.0312 19.875 24.1494 19.875 23.0625C19.875 21.9756 20.7148 21.0938 21.75 21.0938C22.7852 21.0938 23.625 21.9756 23.625 23.0625C23.625 24.1494 22.7852 25.0312 21.75 25.0312ZM24.875 16.5H19.25V11.9062H20.9727L24.875 16.0037V16.5Z" fill="#F1F1F1"/>
</svg>
