<svg width="32" height="32" viewBox="0 0 32 32" fill="none" xmlns="http://www.w3.org/2000/svg">
<path d="M27.9242 10C27.7503 9.15349 27.2897 8.39286 26.6203 7.84637C25.9508 7.29988 25.1134 7.00095 24.2492 7H7.74922C6.88503 7.00095 6.0476 7.29988 5.37814 7.84637C4.70869 8.39286 4.24816 9.15349 4.07422 10H27.9242Z" fill="white"/>
<path d="M28 11.5H4V13.75H28V11.5Z" fill="white"/>
<path d="M4 15.25V21.25C4 22.2446 4.39509 23.1984 5.09835 23.9017C5.80161 24.6049 6.75544 25 7.75 25H24.25C25.2446 25 26.1984 24.6049 26.9016 23.9017C27.6049 23.1984 28 22.2446 28 21.25V15.25H4ZM10.75 22H8.5C8.30109 22 8.11032 21.921 7.96967 21.7803C7.82902 21.6397 7.75 21.4489 7.75 21.25C7.75 21.0511 7.82902 20.8603 7.96967 20.7197C8.11032 20.579 8.30109 20.5 8.5 20.5H10.75C10.9489 20.5 11.1397 20.579 11.2803 20.7197C11.421 20.8603 11.5 21.0511 11.5 21.25C11.5 21.4489 11.421 21.6397 11.2803 21.7803C11.1397 21.921 10.9489 22 10.75 22ZM10.75 19H8.5C8.30109 19 8.11032 18.921 7.96967 18.7803C7.82902 18.6397 7.75 18.4489 7.75 18.25C7.75 18.0511 7.82902 17.8603 7.96967 17.7197C8.11032 17.579 8.30109 17.5 8.5 17.5H10.75C10.9489 17.5 11.1397 17.579 11.2803 17.7197C11.421 17.8603 11.5 18.0511 11.5 18.25C11.5 18.4489 11.421 18.6397 11.2803 18.7803C11.1397 18.921 10.9489 19 10.75 19Z" fill="white"/>
</svg>
