<svg width="24" height="24" viewBox="0 0 24 24" fill="none" xmlns="http://www.w3.org/2000/svg">
<path fill-rule="evenodd" clip-rule="evenodd" d="M12 21C7.02942 21 3 16.9706 3 12C3 7.02942 7.02942 3 12 3C16.9683 3.00543 20.9946 7.03168 21 12C21 16.9706 16.9706 21 12 21ZM11.4999 7C11.4999 6.72388 11.7238 6.5 11.9999 6.5C12.2761 6.5 12.4999 6.72388 12.4999 7V12C12.4998 12.1888 12.3933 12.3615 12.2245 12.4463L9.2431 13.9463C9.17365 13.9819 9.09662 14.0004 9.01855 14C8.74249 13.9998 8.5188 13.7759 8.51898 13.4998C8.51917 13.3111 8.62549 13.1386 8.79395 13.0537L11.4999 11.6914V7Z" fill="white"/>
<path fill-rule="evenodd" clip-rule="evenodd" d="M2 12C2 6.47717 6.47717 2 12 2C17.5228 2 22 6.47717 22 12C21.9935 17.5201 17.5201 21.9935 12 22C6.47717 22 2 17.5228 2 12ZM3 12C3 16.9706 7.02942 21 12 21C16.9706 21 21 16.9706 21 12C20.9946 7.03168 16.9683 3.00543 12 3C7.02942 3 3 7.02942 3 12Z" fill="white"/>
</svg>
