<svg width="32" height="32" viewBox="0 0 32 32" fill="none" xmlns="http://www.w3.org/2000/svg">
<path d="M26.9091 21.623H5.09091C4.80158 21.623 4.5241 21.7379 4.31952 21.9425C4.11493 22.1471 4 22.4246 4 22.7139C4 23.0032 4.11493 23.2807 4.31952 23.4853C4.5241 23.6899 4.80158 23.8048 5.09091 23.8048H26.9091C27.1984 23.8048 27.4759 23.6899 27.6805 23.4853C27.8851 23.2807 28 23.0032 28 22.7139C28 22.4246 27.8851 22.1471 27.6805 21.9425C27.4759 21.7379 27.1984 21.623 26.9091 21.623ZM26.9091 25.9866H5.09091C4.80158 25.9866 4.5241 26.1016 4.31952 26.3062C4.11493 26.5107 4 26.7882 4 27.0775C4 27.3669 4.11493 27.6444 4.31952 27.8489C4.5241 28.0535 4.80158 28.1685 5.09091 28.1685H26.9091C27.1984 28.1685 27.4759 28.0535 27.6805 27.8489C27.8851 27.6444 28 27.3669 28 27.0775C28 26.7882 27.8851 26.5107 27.6805 26.3062C27.4759 26.1016 27.1984 25.9866 26.9091 25.9866ZM9.45455 10.7139C9.23878 10.7139 9.02787 10.7779 8.84847 10.8978C8.66907 11.0176 8.52925 11.188 8.44668 11.3873C8.36411 11.5867 8.3425 11.806 8.3846 12.0176C8.42669 12.2293 8.53059 12.4236 8.68316 12.5762C8.83572 12.7288 9.0301 12.8327 9.24172 12.8748C9.45334 12.9169 9.67268 12.8953 9.87202 12.8127C10.0714 12.7301 10.2417 12.5903 10.3616 12.4109C10.4815 12.2315 10.5455 12.0206 10.5455 11.8048C10.5455 11.5155 10.4305 11.238 10.2259 11.0334C10.0213 10.8288 9.74387 10.7139 9.45455 10.7139ZM24.7273 4.16846H7.27273C6.40475 4.16846 5.57232 4.51326 4.95856 5.12702C4.3448 5.74077 4 6.5732 4 7.44118V16.1685C4 17.0364 4.3448 17.8689 4.95856 18.4826C5.57232 19.0964 6.40475 19.4412 7.27273 19.4412H24.7273C25.5953 19.4412 26.4277 19.0964 27.0414 18.4826C27.6552 17.8689 28 17.0364 28 16.1685V7.44118C28 6.5732 27.6552 5.74077 27.0414 5.12702C26.4277 4.51326 25.5953 4.16846 24.7273 4.16846ZM25.8182 16.1685C25.8182 16.4578 25.7032 16.7353 25.4987 16.9398C25.2941 17.1444 25.0166 17.2594 24.7273 17.2594H7.27273C6.9834 17.2594 6.70592 17.1444 6.50134 16.9398C6.29675 16.7353 6.18182 16.4578 6.18182 16.1685V7.44118C6.18182 7.15186 6.29675 6.87438 6.50134 6.6698C6.70592 6.46521 6.9834 6.35028 7.27273 6.35028H24.7273C25.0166 6.35028 25.2941 6.46521 25.4987 6.6698C25.7032 6.87438 25.8182 7.15186 25.8182 7.44118V16.1685ZM16 8.53209C15.3527 8.53209 14.72 8.72404 14.1818 9.08365C13.6436 9.44326 13.2241 9.95439 12.9764 10.5524C12.7287 11.1504 12.6639 11.8085 12.7902 12.4433C12.9164 13.0781 13.2281 13.6613 13.6858 14.119C14.1435 14.5767 14.7267 14.8884 15.3615 15.0147C15.9964 15.1409 16.6544 15.0761 17.2524 14.8284C17.8504 14.5807 18.3616 14.1612 18.7212 13.6231C19.0808 13.0849 19.2727 12.4521 19.2727 11.8048C19.2727 10.9368 18.9279 10.1044 18.3142 9.49065C17.7004 8.8769 16.868 8.53209 16 8.53209ZM16 12.8957C15.7842 12.8957 15.5733 12.8317 15.3939 12.7119C15.2145 12.592 15.0747 12.4216 14.9921 12.2223C14.9096 12.023 14.888 11.8036 14.9301 11.592C14.9721 11.3804 15.076 11.186 15.2286 11.0334C15.3812 10.8809 15.5756 10.777 15.7872 10.7349C15.9988 10.6928 16.2181 10.7144 16.4175 10.797C16.6168 10.8795 16.7872 11.0193 16.9071 11.1987C17.0269 11.3781 17.0909 11.5891 17.0909 11.8048C17.0909 12.0941 16.976 12.3716 16.7714 12.5762C16.5668 12.7808 16.2893 12.8957 16 12.8957ZM22.5455 10.7139C22.3297 10.7139 22.1188 10.7779 21.9394 10.8978C21.76 11.0176 21.6202 11.188 21.5376 11.3873C21.455 11.5867 21.4334 11.806 21.4755 12.0176C21.5176 12.2293 21.6215 12.4236 21.7741 12.5762C21.9266 12.7288 22.121 12.8327 22.3326 12.8748C22.5442 12.9169 22.7636 12.8953 22.9629 12.8127C23.1623 12.7301 23.3326 12.5903 23.4525 12.4109C23.5724 12.2315 23.6364 12.0206 23.6364 11.8048C23.6364 11.5155 23.5214 11.238 23.3168 11.0334C23.1123 10.8288 22.8348 10.7139 22.5455 10.7139Z" fill="#01AFEC"/>
</svg>
