<svg width="24" height="24" viewBox="0 0 24 24" fill="none" xmlns="http://www.w3.org/2000/svg">
<g clip-path="url(#clip0_1596_6711)">
<path d="M4.92849 4.92893C1.02526 8.83216 1.02526 15.1678 4.92849 19.0711C8.83172 22.9743 15.1674 22.9743 19.0706 19.0711C22.9739 15.1678 22.9739 8.83216 19.0706 4.92893C15.1674 1.0257 8.83172 1.0257 4.92849 4.92893ZM15.5351 8.46447C15.9256 8.85499 15.9256 9.48816 15.5351 9.87868L14.1209 11.2929C13.7304 11.6834 13.7304 12.3166 14.1209 12.7071L15.5351 14.1213C15.9256 14.5118 15.9256 15.145 15.5351 15.5355C15.1446 15.9261 14.5114 15.9261 14.1209 15.5355L12.7067 14.1213C12.3161 13.7308 11.683 13.7308 11.2925 14.1213L9.87824 15.5355C9.48771 15.9261 8.85455 15.9261 8.46402 15.5355C8.0735 15.145 8.0735 14.5118 8.46402 14.1213L9.87824 12.7071C10.2688 12.3166 10.2688 11.6834 9.87824 11.2929L8.46402 9.87868C8.0735 9.48816 8.0735 8.85499 8.46402 8.46447C8.85455 8.07394 9.48771 8.07394 9.87824 8.46447L11.2925 9.87868C11.683 10.2692 12.3161 10.2692 12.7067 9.87868L14.1209 8.46447C14.5114 8.07394 15.1446 8.07394 15.5351 8.46447Z" fill="#DF1E1F"/>
</g>
<defs>
<clipPath id="clip0_1596_6711">
<rect width="24" height="24" fill="white"/>
</clipPath>
</defs>
</svg>
