<svg width="32" height="32" viewBox="0 0 32 32" fill="none" xmlns="http://www.w3.org/2000/svg">
<path d="M26.9933 15.4814C26.9933 16.1494 26.4203 16.6727 25.771 16.6727H24.5487L24.5755 22.6139C24.5755 22.7178 24.5678 22.8143 24.5564 22.9145V23.5156C24.5564 24.3357 23.8727 25 23.0285 25H22.4174C22.3754 25 22.3334 24.9666 22.2913 24.9963C22.2379 24.9666 22.1844 25 22.1309 25H19.9728C19.1287 25 18.445 24.3357 18.445 23.5156V20.25C18.445 19.5932 17.8988 19.0625 17.2227 19.0625H14.7782C14.1021 19.0625 13.5559 19.5932 13.5559 20.25V23.5156C13.5559 24.3357 12.8722 25 12.0281 25H9.89291C9.83562 25 9.77832 24.9963 9.72103 24.9926C9.67519 24.9963 9.62936 25 9.58352 25H8.97239C8.12864 25 7.44455 24.3357 7.44455 23.5156V19.3594C7.44455 19.326 7.44569 19.2889 7.44798 19.2555V16.6727H6.22418C5.53551 16.6727 5 16.1494 5 15.4814C5 15.1475 5.11474 14.8506 5.38234 14.5908L15.1754 6.29747C15.4428 6.03718 15.7484 6 16.0157 6C16.2831 6 16.5887 6.07437 16.8217 6.26029L26.5731 14.5908C26.8787 14.8506 27.0353 15.1475 26.9933 15.4814Z" fill="#4E4E4E"/>
</svg>
