<svg width="24" height="24" viewBox="0 0 24 24" fill="none" xmlns="http://www.w3.org/2000/svg">
<path fill-rule="evenodd" clip-rule="evenodd" d="M20.5871 7.74486C20.7116 7.31586 20.5871 7 19.9909 7H18.0222C17.5212 7 17.2902 7.27264 17.165 7.57357C17.165 7.57357 16.1637 10.0847 14.7455 11.7159C14.2865 12.1889 14.078 12.3389 13.8275 12.3389C13.7023 12.3389 13.514 12.1889 13.514 11.7591V7.74486C13.514 7.22943 13.376 7 12.959 7H9.86311C9.55036 7 9.36212 7.23886 9.36212 7.46593C9.36212 7.95386 10.0716 8.067 10.1444 9.44043V12.4246C10.1444 13.0791 10.0296 13.1977 9.77911 13.1977C9.11162 13.1977 7.48791 10.6748 6.52418 7.78807C6.33743 7.22629 6.14843 7 5.64519 7H3.67499C3.1125 7 3 7.27264 3 7.57357C3 8.10943 3.66749 10.7714 6.10868 14.2922C7.73615 16.6965 10.0274 18 12.1146 18C13.3663 18 13.5208 17.7109 13.5208 17.2119V15.3946C13.5208 14.8155 13.6393 14.7 14.036 14.7C14.3285 14.7 14.8288 14.8509 15.9972 16.0098C17.3322 17.384 17.5519 18 18.3034 18H20.2721C20.8346 18 21.1166 17.7109 20.9546 17.1389C20.7761 16.57 20.1386 15.7442 19.2934 14.7644C18.8344 14.2066 18.1459 13.6055 17.9367 13.3046C17.6449 12.9188 17.7282 12.7467 17.9367 12.4034C17.9367 12.4034 20.3366 8.92579 20.5864 7.74486H20.5871Z" fill="#01AFEC"/>
</svg>
