<svg width="24" height="24" viewBox="0 0 24 24" fill="none" xmlns="http://www.w3.org/2000/svg">
<path fill-rule="evenodd" clip-rule="evenodd" d="M4.42351 11.6137C8.64732 9.77339 11.4639 8.56017 12.8731 7.97405C16.8968 6.30046 17.733 6.00972 18.2779 6.0001C18.3977 5.99801 18.6657 6.02772 18.8393 6.16859C19.0968 6.37755 19.0983 6.83112 19.0697 7.13131C18.8517 9.42238 17.9082 14.9821 17.4282 17.5481C17.225 18.6339 16.8251 18.998 16.438 19.0336C15.5966 19.111 14.9577 18.4775 14.1428 17.9433C12.8676 17.1074 12.1471 16.587 10.9093 15.7714C9.47879 14.8287 10.4061 14.3106 11.2214 13.4638C11.4347 13.2422 15.1419 9.87023 15.2137 9.56432C15.2227 9.52606 15.231 9.38344 15.1463 9.30816C15.0616 9.23289 14.9365 9.25858 14.8463 9.27907C14.7184 9.30811 12.6812 10.6546 8.73482 13.3185C8.15656 13.7156 7.63281 13.9091 7.16356 13.8989C6.6462 13.8878 5.65111 13.6065 4.91132 13.366C4.00395 13.071 3.28279 12.9151 3.34561 12.4142C3.37833 12.1532 3.73761 11.8864 4.42351 11.6137Z" fill="#01AFEC"/>
</svg>
