<svg width="24" height="24" viewBox="0 0 24 24" fill="none" xmlns="http://www.w3.org/2000/svg">
<path fill-rule="evenodd" clip-rule="evenodd" d="M2 4C2 2.89543 2.89543 2 4 2H20C21.1046 2 22 2.89543 22 4C22 5.10457 21.1046 6 20 6H4C2.89543 6 2 5.10457 2 4ZM2 12C2 10.8954 2.89543 10 4 10H20C21.1046 10 22 10.8954 22 12C22 13.1046 21.1046 14 20 14H4C2.89543 14 2 13.1046 2 12ZM4 18C2.89543 18 2 18.8954 2 20C2 21.1046 2.89543 22 4 22H20C21.1046 22 22 21.1046 22 20C22 18.8954 21.1046 18 20 18H4Z" fill="#D2D2D2"/>
</svg>
