<svg width="50" height="50" viewBox="0 0 50 50" fill="none" xmlns="http://www.w3.org/2000/svg">
<path d="M28.2929 33.7071C28.6834 34.0976 29.3166 34.0976 29.7071 33.7071C30.0976 33.3166 30.0976 32.6834 29.7071 32.2929L28.2929 33.7071ZM21 25L20.2929 24.2929L19.5858 25L20.2929 25.7071L21 25ZM29.7071 17.7071C30.0976 17.3166 30.0976 16.6834 29.7071 16.2929C29.3166 15.9024 28.6834 15.9024 28.2929 16.2929L29.7071 17.7071ZM29.7071 32.2929L21.7071 24.2929L20.2929 25.7071L28.2929 33.7071L29.7071 32.2929ZM21.7071 25.7071L29.7071 17.7071L28.2929 16.2929L20.2929 24.2929L21.7071 25.7071Z" fill="#01AFEC"/>
</svg>
