<svg width="50" height="50" viewBox="0 0 50 50" fill="none" xmlns="http://www.w3.org/2000/svg">
<path d="M21.7071 33.7071C21.3166 34.0976 20.6834 34.0976 20.2929 33.7071C19.9024 33.3166 19.9024 32.6834 20.2929 32.2929L21.7071 33.7071ZM29 25L29.7071 24.2929L30.4142 25L29.7071 25.7071L29 25ZM20.2929 17.7071C19.9024 17.3166 19.9024 16.6834 20.2929 16.2929C20.6834 15.9024 21.3166 15.9024 21.7071 16.2929L20.2929 17.7071ZM20.2929 32.2929L28.2929 24.2929L29.7071 25.7071L21.7071 33.7071L20.2929 32.2929ZM28.2929 25.7071L20.2929 17.7071L21.7071 16.2929L29.7071 24.2929L28.2929 25.7071Z" fill="#949494"/>
</svg>
