<svg width="24" height="24" viewBox="0 0 24 24" fill="none" xmlns="http://www.w3.org/2000/svg">
<path d="M20.1782 16.0602C19.4317 15.2932 17.3098 13.8562 15.9191 13.8562C15.5969 13.8562 15.3157 13.9278 15.0857 14.0761C14.4056 14.5108 13.8637 14.8483 13.6029 14.8483C13.4597 14.8483 13.3063 14.7205 12.9689 14.429L12.9126 14.3778C11.977 13.5648 11.7776 13.3551 11.4145 12.9767L11.3225 12.8795C11.256 12.8131 11.1998 12.7517 11.1436 12.6955C10.8266 12.3682 10.5965 12.133 9.78351 11.2125L9.74772 11.1716C9.35913 10.7318 9.10348 10.4455 9.08815 10.2358C9.07281 10.0312 9.25176 9.69886 9.70681 9.08011C10.259 8.33352 10.2795 7.41307 9.77328 6.34432C9.36936 5.50057 8.70979 4.69261 8.12691 3.98182L8.07578 3.92045C7.57471 3.30682 6.99183 3 6.34248 3C5.62156 3 5.02334 3.38864 4.70634 3.59318C4.68077 3.60852 4.65521 3.62898 4.62964 3.64432C3.91894 4.09432 3.40253 4.71307 3.20824 5.34205C2.9168 6.28807 2.72251 7.51534 4.11835 10.067C5.325 12.2761 6.41918 13.7591 8.15759 15.5437C9.79373 17.221 10.5198 17.7631 12.1457 18.9392C13.9557 20.2483 15.6941 21 16.911 21C18.0409 21 18.9306 21 20.1986 19.471C21.528 17.8653 20.9758 16.8835 20.1782 16.0602ZM19.5902 18.9187C18.5676 20.1562 17.9796 20.1562 16.9161 20.1562C15.8782 20.1562 14.2676 19.4403 12.611 18.2489C11.026 17.1034 10.3204 16.5767 8.73024 14.9455C7.04807 13.2222 5.98969 11.7852 4.82393 9.65284C3.59171 7.39773 3.72976 6.4108 3.9803 5.59773C4.11323 5.16307 4.51204 4.69773 5.05402 4.36023C5.07958 4.34489 5.10515 4.32443 5.13582 4.30909C5.13818 4.30758 5.14054 4.30606 5.14292 4.30454C5.41463 4.13019 5.86101 3.84375 6.3476 3.84375C6.75663 3.84375 7.11965 4.0483 7.46734 4.47273L7.51847 4.53409C8.82227 6.12955 9.83975 7.54091 9.07281 8.58409C8.53083 9.31534 8.24451 9.81136 8.29052 10.3227C8.33143 10.8188 8.66377 11.192 9.16484 11.7545L9.20063 11.7955C10.0238 12.7261 10.259 12.9716 10.5862 13.304C10.6425 13.3602 10.6987 13.4216 10.7652 13.4881L10.8572 13.5852C11.2356 13.979 11.4452 14.1937 12.4065 15.0375L12.4627 15.0886C12.8717 15.4466 13.1734 15.7074 13.6131 15.7074C14.0682 15.7074 14.5692 15.421 15.5203 14.8125C15.6174 14.7511 15.7554 14.7153 15.9293 14.7153C17.0388 14.7153 18.9511 15.9835 19.6208 16.6739C20.2344 17.2977 20.5412 17.7682 19.5902 18.9187Z" fill="white"/>
<path d="M19.5902 18.9187C18.5676 20.1562 17.9796 20.1562 16.9161 20.1562C15.8782 20.1562 14.2676 19.4403 12.611 18.2489C11.026 17.1034 10.3204 16.5767 8.73024 14.9455C7.04807 13.2222 5.98969 11.7852 4.82393 9.65284C3.59171 7.39773 3.72976 6.4108 3.9803 5.59773C4.11323 5.16307 4.51204 4.69773 5.05402 4.36023C5.07958 4.34489 5.10515 4.32443 5.13582 4.30909L5.14292 4.30454C5.41463 4.13019 5.86101 3.84375 6.3476 3.84375C6.75663 3.84375 7.11965 4.0483 7.46734 4.47273L7.51847 4.53409C8.82227 6.12955 9.83975 7.54091 9.07281 8.58409C8.53083 9.31534 8.24451 9.81136 8.29052 10.3227C8.33143 10.8188 8.66377 11.192 9.16484 11.7545L9.20063 11.7955C10.0238 12.7261 10.259 12.9716 10.5862 13.304C10.6425 13.3602 10.6987 13.4216 10.7652 13.4881L10.8572 13.5852C11.2356 13.979 11.4452 14.1937 12.4065 15.0375L12.4627 15.0886C12.8717 15.4466 13.1734 15.7074 13.6131 15.7074C14.0682 15.7074 14.5692 15.421 15.5203 14.8125C15.6174 14.7511 15.7554 14.7153 15.9293 14.7153C17.0388 14.7153 18.9511 15.9835 19.6208 16.6739C20.2344 17.2977 20.5412 17.7682 19.5902 18.9187Z" fill="white"/>
</svg>
