<svg width="24" height="24" viewBox="0 0 24 24" fill="none" xmlns="http://www.w3.org/2000/svg">
<g id="icon-telegram">
<g id="Group">
<path id="Vector" d="M12 22C17.5228 22 22 17.5228 22 12C22 6.47715 17.5228 2 12 2C6.47715 2 2 6.47715 2 12C2 17.5228 6.47715 22 12 22Z" fill="white"/>
<path id="Vector_2" fill-rule="evenodd" clip-rule="evenodd" d="M6.52685 11.8945C9.44205 10.6243 11.386 9.787 12.3586 9.38247C15.1357 8.22739 15.7128 8.02673 16.0889 8.02009C16.1716 8.01864 16.3566 8.03915 16.4764 8.13638C16.6541 8.2806 16.6551 8.59364 16.6354 8.80083C16.4849 10.3821 15.8337 14.2193 15.5024 15.9903C15.3622 16.7397 15.0862 16.991 14.819 17.0156C14.2383 17.069 13.7974 16.6318 13.2349 16.2631C12.3548 15.6861 11.8576 15.327 11.0032 14.764C10.0159 14.1134 10.656 13.7558 11.2186 13.1714C11.3659 13.0185 13.9245 10.6912 13.974 10.4801C13.9803 10.4536 13.986 10.3552 13.9275 10.3033C13.869 10.2513 13.7828 10.269 13.7205 10.2832C13.6322 10.3032 12.2262 11.2325 9.50244 13.0711C9.10334 13.3452 8.74185 13.4787 8.41798 13.4717C8.06091 13.464 7.37412 13.2699 6.86353 13.1039C6.23728 12.9003 5.73955 12.7927 5.78291 12.447C5.80548 12.2668 6.05345 12.0827 6.52685 11.8945Z" fill="#01AFEC"/>
</g>
</g>
</svg>
