<svg width="24" height="24" viewBox="0 0 24 24" fill="none" xmlns="http://www.w3.org/2000/svg">
<path d="M20.25 7.24H17.25V5.44C17.25 4.64575 16.5773 4 15.75 4H8.25C7.42266 4 6.75 4.64575 6.75 5.44V7.24H3.75C3.33516 7.24 3 7.56175 3 7.96V8.68C3 8.779 3.08437 8.86 3.1875 8.86H4.60312L5.18203 20.6275C5.21953 21.3948 5.88047 22 6.67969 22H17.3203C18.1219 22 18.7805 21.397 18.818 20.6275L19.3969 8.86H20.8125C20.9156 8.86 21 8.779 21 8.68V7.96C21 7.56175 20.6648 7.24 20.25 7.24ZM15.5625 7.24H8.4375V5.62H15.5625V7.24Z" fill="#D2D2D2"/>
</svg>
