<svg width="24" height="24" viewBox="0 0 24 24" fill="none" xmlns="http://www.w3.org/2000/svg">
<path d="M12 22C9.34783 22 6.8043 20.9464 4.92893 19.0711C3.05357 17.1957 2 14.6522 2 12C2 9.34784 3.05357 6.8043 4.92893 4.92893C6.8043 3.05357 9.34784 2 12 2V12V22Z" fill="white"/>
<path d="M12 22C14.6522 22 17.1957 20.9464 19.0711 19.0711C20.9464 17.1957 22 14.6522 22 12C22 9.34784 20.9464 6.8043 19.0711 4.92893C17.1957 3.05357 14.6522 2 12 2V3.74194C14.1902 3.74194 16.2906 4.61198 17.8393 6.16067C19.388 7.70936 20.2581 9.80983 20.2581 12C20.2581 14.1902 19.388 16.2906 17.8393 17.8393C16.2906 19.388 14.1902 20.2581 12 20.2581V22Z" fill="white"/>
</svg>
