<svg width="48" height="40" viewBox="0 0 48 40" fill="none" xmlns="http://www.w3.org/2000/svg">
<g id="Group">
<path id="Vector" fill-rule="evenodd" clip-rule="evenodd" d="M32.6553 39.1016V21.3698L48 12.5105V29.5634C48 29.9941 47.7849 30.3665 47.412 30.5818L32.6553 39.1016ZM14.1968 30.2887H1.81594C0.813094 30.2887 0 29.4756 0 28.4728C0 27.4699 0.813094 26.6568 1.81594 26.6568H14.1322C16.2618 26.6568 16.2618 23.2557 14.1322 23.2557H6.73097C5.72812 23.2557 4.91494 22.4427 4.91494 21.4398C4.91494 20.437 5.72812 19.6239 6.73097 19.6239H12.5197C14.6493 19.6239 14.6493 16.2228 12.5197 16.2228H1.81603C0.813188 16.2228 9.375e-05 15.4097 9.375e-05 14.4069C9.375e-05 13.404 0.813188 12.5909 1.81603 12.5909H14.2555L29.4613 21.3701V39.1016L14.1968 30.2887ZM15.7021 9.74731L31.0583 18.6132L46.4144 9.74722L31.0877 0.898438H21.0317C20.0288 0.898438 19.2157 1.71153 19.2157 2.71438C19.2157 3.71722 20.0288 4.53031 21.0317 4.53031H23.1568C23.352 4.53031 23.5156 4.65584 23.5661 4.84437C23.6166 5.03291 23.5377 5.22341 23.3687 5.32109L15.7021 9.74731ZM14.828 0.898438C15.8308 0.898438 16.6439 1.71153 16.6439 2.71438C16.6439 3.71722 15.8308 4.53031 14.828 4.53031H3.79013C2.78728 4.53031 1.97409 3.71722 1.97409 2.71438C1.97409 1.71153 2.78719 0.898438 3.79013 0.898438H14.828Z" fill="#01AFEC"/>
</g>
</svg>
