<svg width="34" height="44" viewBox="0 0 34 44" fill="none" xmlns="http://www.w3.org/2000/svg">
<g id="Group">
<path id="Vector" fill-rule="evenodd" clip-rule="evenodd" d="M29.5323 24.3012C29.1874 22.5958 29.8732 20.9373 31.3235 19.9758C33.7538 18.3637 33.7573 14.7921 31.3235 13.1767C29.8732 12.2141 29.1874 10.5568 29.5323 8.85081C30.1103 5.99031 27.5855 3.46581 24.7248 4.04387C23.0183 4.38878 21.3609 3.70178 20.3983 2.25203C18.7837 -0.180689 15.2149 -0.180689 13.6003 2.25203C12.6377 3.70187 10.9803 4.38765 9.27439 4.04387C6.40705 3.46422 3.88864 5.99444 4.46633 8.85081C4.8118 10.5568 4.12536 12.2141 2.67505 13.1767C0.241953 14.7917 0.245516 18.3643 2.67505 19.9758C4.12536 20.9373 4.8118 22.5959 4.46633 24.3012C3.88845 27.1576 6.40714 29.6861 9.27439 29.1087C10.9526 28.7707 12.6206 29.4256 13.6003 30.9005C15.2168 33.3344 18.7838 33.3324 20.3983 30.9005C21.3609 29.4502 23.0183 28.7638 24.7248 29.1087C27.5846 29.6866 30.1101 27.161 29.5323 24.3012ZM9.93148 32.1133C10.3927 32.0366 10.7779 32.2077 11.0394 32.6015C13.8694 36.8622 20.1305 36.8627 22.9596 32.6009C23.2212 32.2069 23.6091 32.0368 24.0678 32.1132V42.6096C24.0678 43.449 23.0694 43.8847 22.454 43.3142C20.7025 41.6903 18.4326 39.707 16.9997 39.707C15.5667 39.707 13.2968 41.6903 11.5454 43.3142C10.9299 43.8848 9.93158 43.449 9.93158 42.6096V32.1133H9.93148ZM16.9993 26.2181C11.6829 26.2181 7.35805 21.8927 7.35805 16.5758C7.35805 11.2599 11.6828 6.93465 16.9993 6.93465C22.3163 6.93465 26.6411 11.26 26.6411 16.5758C26.6411 21.8927 22.3162 26.2181 16.9993 26.2181ZM10.4329 16.5757C10.4329 12.9546 13.3782 10.0093 16.9993 10.0093C20.6204 10.0093 23.5669 12.9546 23.5669 16.5757C23.5669 20.1968 20.6205 23.1433 16.9993 23.1433C13.3782 23.1433 10.4329 20.1968 10.4329 16.5757Z" fill="#01AFEC"/>
</g>
</svg>
