<svg width="48" height="48" viewBox="0 0 48 48" fill="none" xmlns="http://www.w3.org/2000/svg">
<path d="M15 28H5C4.44772 28 4 28.4477 4 29V41C4 41.5523 4.44772 42 5 42H15C15.5523 42 16 41.5523 16 41V29C16 28.4477 15.5523 28 15 28Z" fill="#01AFEC"/>
<path d="M29 22H19C18.4477 22 18 22.4477 18 23V41C18 41.5523 18.4477 42 19 42H29C29.5523 42 30 41.5523 30 41V23C30 22.4477 29.5523 22 29 22Z" fill="#01AFEC"/>
<path d="M43 16H33C32.4477 16 32 16.4477 32 17V41C32 41.5523 32.4477 42 33 42H43C43.5523 42 44 41.5523 44 41V17C44 16.4477 43.5523 16 43 16Z" fill="#01AFEC"/>
<path d="M45.7891 2.385C45.6957 2.26517 45.5761 2.16822 45.4396 2.10151C45.3031 2.03479 45.1531 2.00008 45.0011 2H37.0011C36.7359 2 36.4816 2.10536 36.294 2.29289C36.1065 2.48043 36.0011 2.73478 36.0011 3C36.0011 3.26522 36.1065 3.51957 36.294 3.70711C36.4816 3.89464 36.7359 4 37.0011 4H42.3721C36.7487 8.94214 30.4185 13.0164 23.5911 16.088C17.0022 19.0445 10.0225 21.0385 2.86614 22.009C2.61472 22.043 2.38561 22.1712 2.22521 22.3678C2.06482 22.5643 1.98513 22.8145 2.00229 23.0677C2.01946 23.3208 2.13219 23.5579 2.31765 23.731C2.50311 23.9041 2.74744 24.0003 3.00114 24C3.04662 23.9999 3.09205 23.9969 3.13714 23.991C10.4831 22.9943 17.6476 20.947 24.4111 17.912C31.237 14.846 37.5807 10.8037 43.2431 5.912L42.0311 10.762C41.967 11.0191 42.0075 11.2912 42.1439 11.5184C42.2802 11.7457 42.5011 11.9095 42.7581 11.974C42.8378 11.9923 42.9194 12.0011 43.0011 12C43.224 11.9997 43.4404 11.925 43.616 11.7876C43.7916 11.6503 43.9162 11.4583 43.9701 11.242L45.9701 3.242C46.007 3.09478 46.0098 2.94111 45.9785 2.79263C45.9471 2.64415 45.8824 2.50475 45.7891 2.385ZM45.0011 46H3.00114C2.73593 46 2.48157 45.8946 2.29404 45.7071C2.1065 45.5196 2.00114 45.2652 2.00114 45C2.00114 44.7348 2.1065 44.4804 2.29404 44.2929C2.48157 44.1054 2.73593 44 3.00114 44H45.0011C45.2664 44 45.5207 44.1054 45.7083 44.2929C45.8958 44.4804 46.0011 44.7348 46.0011 45C46.0011 45.2652 45.8958 45.5196 45.7083 45.7071C45.5207 45.8946 45.2664 46 45.0011 46Z" fill="#01AFEC"/>
</svg>
