<svg width="42" height="42" viewBox="0 0 42 42" fill="none" xmlns="http://www.w3.org/2000/svg">
<g id="Group">
<path id="Vector" d="M9.66 27.9488H14.0347V41.9836H0V27.9488H4.374V30.8063C4.37479 31.0203 4.46017 31.2252 4.6115 31.3764C4.76284 31.5276 4.96783 31.6128 5.18175 31.6133H8.85375C9.06754 31.6126 9.27234 31.5273 9.42351 31.3761C9.57468 31.2249 9.65996 31.0201 9.66075 30.8063L9.66 27.9488ZM25.3095 30.8063C25.3087 31.0201 25.2234 31.2249 25.0723 31.3761C24.9211 31.5273 24.7163 31.6126 24.5025 31.6133H20.8387C20.625 31.6126 20.4202 31.5273 20.269 31.3761C20.1178 31.2249 20.0325 31.0201 20.0317 30.8063V27.9488H15.6488V41.9836H29.6925V27.9488H25.3095V30.8063ZM12.8407 26.3348H21.5002C21.5917 26.3386 21.7718 26.3318 21.8633 26.3348V12.2919H17.481V15.1493C17.4813 15.2554 17.4606 15.3604 17.4202 15.4584C17.3797 15.5564 17.3203 15.6454 17.2453 15.7204C17.1702 15.7953 17.0812 15.8547 16.9831 15.895C16.8851 15.9354 16.78 15.956 16.674 15.9556H13.0103C12.9042 15.956 12.799 15.9354 12.701 15.895C12.6029 15.8546 12.5137 15.7951 12.4387 15.7201C12.3637 15.6451 12.3043 15.556 12.2639 15.4579C12.2235 15.3598 12.2029 15.2547 12.2032 15.1486V12.2911H7.82025V26.3348H12.6877C12.7384 26.3268 12.7901 26.3268 12.8407 26.3348ZM13.8173 12.2919V14.3416H15.867V12.2926L13.8173 12.2919ZM21.6458 29.9993H23.6955V27.9488H21.6458V29.9993ZM8.04675 27.9488H5.98875V29.9986H8.04675V27.9488ZM21.1942 26.4316C21.2153 26.4166 21.267 26.3978 21.2903 26.3836C21.254 26.3898 21.2211 26.4065 21.1942 26.4316ZM35.6805 20.1608C35.7371 20.005 35.8403 19.8702 35.9761 19.775C36.1119 19.6797 36.2736 19.6285 36.4395 19.6283H42V12.7516H36.4395C36.2564 12.7496 36.0792 12.6866 35.936 12.5727C35.7927 12.4587 35.6914 12.3003 35.6482 12.1223C35.5614 11.9609 35.5265 11.7766 35.5483 11.5946C35.57 11.4126 35.6474 11.2418 35.7698 11.1053L39.6997 7.18285L34.8413 2.3251L30.9113 6.2476C30.7988 6.35875 30.6565 6.43475 30.5016 6.46632C30.3467 6.49789 30.1859 6.48365 30.039 6.42535C29.8319 6.39506 29.6417 6.29416 29.5005 6.13971C29.3594 5.98527 29.2759 5.78678 29.2643 5.57785V0.0166016H22.3883V5.5771C22.365 5.75544 22.295 5.92446 22.1853 6.06696C22.0756 6.20946 21.9301 6.32037 21.7636 6.38841C21.5971 6.45645 21.4156 6.47919 21.2375 6.45433C21.0593 6.42947 20.891 6.35788 20.7495 6.24685L16.8195 2.32435L11.9685 7.18285L15.4635 10.6778C17.0355 10.6854 20.6047 10.6719 22.1302 10.6778C23.2235 9.93763 24.5143 9.54379 25.8345 9.5476C26.8079 9.54778 27.7694 9.76198 28.6509 10.175C29.5323 10.5881 30.3122 11.1898 30.9353 11.9377C31.5583 12.6856 32.0094 13.5614 32.2564 14.503C32.5034 15.4445 32.5404 16.4289 32.3648 17.3864C32.1891 18.3438 31.8051 19.2509 31.2399 20.0435C30.6748 20.8361 29.9423 21.4947 29.0943 21.9727C28.2463 22.4508 27.3036 22.7365 26.3329 22.8098C25.3623 22.883 24.3874 22.742 23.4773 22.3966C23.4735 23.3581 23.4803 25.3643 23.4773 26.3348H29.4172C29.5012 26.2226 29.6066 26.1281 29.7272 26.0568C29.8478 25.9854 29.9814 25.9387 30.1202 25.9191C30.259 25.8996 30.4002 25.9077 30.5359 25.943C30.6715 25.9783 30.7988 26.0401 30.9105 26.1248L34.8413 30.0548L39.6997 25.1888L35.7698 21.2738C35.6337 21.1244 35.551 20.9341 35.5349 20.7326C35.5187 20.5311 35.57 20.33 35.6805 20.1608Z" fill="#01AFEC"/>
</g>
</svg>
