<svg width="64" height="54" viewBox="0 0 64 54" fill="none" xmlns="http://www.w3.org/2000/svg">
<g id="Group">
<path id="Vector" d="M19.4985 50.6999C19.0985 50.3999 18.5985 50.0999 18.1985 49.8999C18.2985 49.0999 18.1985 48.1999 17.9985 47.2999C17.5985 45.7999 16.7985 44.3999 15.6985 43.0999C14.6985 43.8999 14.1985 45.2999 14.3985 46.7999C13.6985 46.0999 12.9985 45.3999 12.3985 44.6999C12.7985 43.9999 12.9985 43.0999 12.9985 42.1999C13.0985 40.6999 12.7985 39.1999 12.0985 37.6999C10.7985 38.1999 9.99848 39.4999 9.79848 40.9999C9.29848 40.1999 8.89848 39.2999 8.49848 38.4999C9.09848 37.8999 9.59848 37.0999 9.89848 36.1999C10.3985 34.7999 10.4985 33.2999 10.1985 31.6999C8.79848 31.8999 7.59848 32.8999 6.99848 34.3999C6.69848 33.3999 6.49848 32.4999 6.39848 31.4999C7.19848 31.0999 7.89848 30.3999 8.39848 29.5999C9.19848 28.3999 9.79848 26.8999 9.89848 25.2999C8.39848 25.0999 6.89848 25.8999 5.99848 27.2999C5.99848 26.2999 6.09848 25.1999 6.19848 24.1999C7.09848 23.9999 7.99848 23.4999 8.79848 22.8999C9.89848 21.9999 10.7985 20.6999 11.3985 19.1999C9.99848 18.5999 8.29848 18.9999 6.99848 20.1999C7.29848 19.1999 7.59848 18.0999 7.99848 17.0999C8.99848 17.1999 9.99848 16.8999 10.8985 16.4999C12.1985 15.8999 13.3985 14.8999 14.3985 13.4999C13.1985 12.4999 11.3985 12.4999 9.79848 13.3999C10.3985 12.3999 10.9985 11.4999 11.6985 10.5999C12.5985 10.9999 13.6985 10.9999 14.7985 10.7999C16.2985 10.4999 17.7985 9.8999 19.1985 8.7999C18.2985 7.4999 16.4985 6.9999 14.5985 7.4999C15.9985 6.1999 17.4985 4.9999 19.2985 3.9999C19.7985 3.6999 19.9985 3.0999 19.6985 2.5999C19.3985 2.0999 18.6985 1.8999 18.1985 2.1999C16.2985 3.2999 14.5985 4.5999 13.0985 5.9999C13.8985 3.9999 13.9985 2.1999 13.0985 0.799902C11.2985 1.9999 9.99848 3.9999 9.69848 5.6999C9.39848 6.9999 9.59848 8.0999 10.1985 8.9999C9.39848 9.9999 8.69848 11.0999 8.09848 12.0999C8.29848 9.9999 7.79848 8.1999 6.59848 7.1999C5.19848 9.0999 4.59848 11.2999 4.79848 12.9999C4.89848 14.2999 5.39848 15.2999 6.19848 15.9999C5.69848 17.1999 5.29848 18.2999 4.99848 19.4999C4.59848 17.4999 3.69848 15.8999 2.19848 15.1999C1.39848 17.3999 1.39848 19.5999 1.99848 21.1999C2.49848 22.3999 3.19848 23.1999 4.19848 23.6999C3.99848 24.8999 3.99848 26.0999 3.99848 27.2999C3.09848 25.4999 1.79848 24.2999 0.198477 24.0999C-0.00152341 26.3999 0.598477 28.4999 1.59848 29.8999C2.29848 30.8999 3.29848 31.4999 4.29848 31.6999C4.39848 32.8999 4.69848 33.9999 4.89848 35.0999C3.59848 33.6999 2.09848 32.8999 0.498477 33.0999C0.898477 35.3999 1.99848 37.2999 3.39848 38.2999C4.29848 39.0999 5.39848 39.3999 6.29848 39.2999C6.69848 40.2999 7.19848 41.3999 7.69848 42.2999C5.99848 41.5999 4.39848 41.1999 2.99848 41.7999C3.99848 43.8999 5.59848 45.4999 7.19848 46.1999C8.29848 46.6999 9.29848 46.6999 10.1985 46.4999C10.8985 47.3999 11.5985 48.1999 12.3985 48.9999C10.6985 48.5999 9.19848 48.6999 8.09848 49.5999C9.69848 51.3999 11.7985 52.4999 13.5985 52.7999C14.6985 52.9999 15.6985 52.7999 16.4985 52.3999C16.8985 52.6999 17.3985 52.9999 17.7985 53.2999C18.5985 53.7999 19.5985 53.4999 19.9985 52.6999C20.3985 51.9999 20.1985 51.0999 19.4985 50.6999ZM59.2985 35.0999C59.5985 33.9999 59.7985 32.7999 59.8985 31.6999C60.8985 31.4999 61.7985 30.8999 62.5985 29.8999C63.5985 28.4999 64.1985 26.3999 63.9985 24.0999C62.3985 24.2999 61.0985 25.5999 60.1985 27.2999C60.1985 26.0999 60.0985 24.8999 59.9985 23.6999C60.8985 23.2999 61.6985 22.3999 62.1985 21.1999C62.7985 19.5999 62.8985 17.3999 61.9985 15.1999C60.4985 15.8999 59.5985 17.4999 59.1985 19.4999C58.8985 18.2999 58.4985 17.0999 57.9985 15.9999C58.7985 15.2999 59.2985 14.2999 59.3985 12.9999C59.5985 11.2999 58.9985 9.0999 57.5985 7.1999C56.2985 8.1999 55.8985 10.0999 56.0985 12.0999C55.2985 10.9999 54.5985 9.9999 53.7985 8.9999C54.3985 8.1999 54.5985 6.9999 54.2985 5.6999C53.9985 3.9999 52.6985 1.9999 50.6985 0.399902C49.7985 1.6999 49.8985 3.5999 50.6985 5.5999C49.1985 4.1999 47.4985 2.8999 45.5985 1.7999C45.0985 1.4999 44.3985 1.6999 44.0985 2.1999C43.7985 2.6999 43.9985 3.2999 44.4985 3.5999C46.1985 4.5999 47.7985 5.7999 49.1985 7.0999C47.2985 6.5999 45.4985 7.0999 44.5985 8.3999C45.9985 9.4999 47.4985 10.0999 48.9985 10.3999C50.0985 10.5999 51.1985 10.5999 52.0985 10.1999C52.7985 11.0999 53.4985 12.0999 53.9985 12.9999C52.3985 12.0999 50.5985 12.0999 49.3985 13.0999C50.3985 14.3999 51.5985 15.4999 52.8985 16.0999C53.8985 16.5999 54.8985 16.7999 55.7985 16.6999C56.1985 17.6999 56.4985 18.6999 56.7985 19.7999C55.4985 18.5999 53.7985 18.1999 52.3985 18.7999C52.9985 20.2999 53.8985 21.5999 54.9985 22.4999C55.7985 23.1999 56.6985 23.5999 57.5985 23.7999C57.6985 24.7999 57.7985 25.8999 57.7985 26.8999C56.8985 25.4999 55.3985 24.6999 53.8985 24.8999C54.0985 26.4999 54.5985 27.9999 55.3985 29.1999C55.8985 29.9999 56.5985 30.6999 57.3985 31.0999C57.1985 32.0999 56.9985 32.9999 56.7985 33.9999C56.1985 32.4999 55.0985 31.3999 53.5985 31.2999C53.2985 32.8999 53.4985 34.4999 53.8985 35.7999C54.1985 36.6999 54.5985 37.4999 55.2985 38.0999C54.8985 38.9999 54.4985 39.7999 53.9985 40.5999C53.7985 39.0999 52.9985 37.7999 51.6985 37.2999C50.9985 38.7999 50.6985 40.2999 50.7985 41.7999C50.7985 42.6999 50.9985 43.5999 51.3985 44.2999C50.7985 44.9999 50.0985 45.6999 49.3985 46.3999C49.5985 44.8999 49.1985 43.4999 48.0985 42.6999C46.9985 43.9999 46.1985 45.3999 45.7985 46.8999C45.5985 47.7999 45.4985 48.6999 45.5985 49.4999C45.1985 49.7999 44.7985 50.0999 44.2985 50.2999C43.5985 50.6999 43.3985 51.5999 43.6985 52.2999C44.0985 53.0999 45.0985 53.3999 45.8985 52.8999C46.3985 52.5999 46.7985 52.2999 47.1985 51.9999C47.9985 52.3999 48.9985 52.5999 50.0985 52.3999C51.8985 52.0999 53.9985 50.9999 55.5985 49.1999C54.4985 48.2999 52.9985 48.1999 51.2985 48.5999C52.0985 47.7999 52.7985 46.9999 53.4985 46.0999C54.3985 46.2999 55.3985 46.1999 56.4985 45.7999C58.0985 45.0999 59.6985 43.5999 60.6985 41.3999C59.2985 40.7999 57.6985 41.1999 56.1985 42.0999C56.6985 41.0999 57.1985 40.0999 57.5985 39.0999C58.5985 39.0999 59.5985 38.7999 60.4985 38.0999C61.7985 36.9999 62.9985 35.1999 63.3985 32.8999C62.0985 32.8999 60.5985 33.7999 59.2985 35.0999Z" fill="white"/>
<path id="Vector_2" d="M44.2977 44.3L42.1977 32.2L50.9977 23.6C51.2977 23.3 51.3977 22.9 51.2977 22.6C51.1977 22.2 50.8977 22 50.4977 21.9L38.2977 20.1L32.8977 9.1C32.6977 8.8 32.3977 8.5 31.9977 8.5C31.5977 8.5 31.2977 8.7 31.0977 9.1L25.6977 20.1L13.4977 21.9C13.0977 22 12.7977 22.2 12.6977 22.6C12.5977 23 12.6977 23.4 12.9977 23.6L21.7977 32.2L19.6977 44.3C19.5977 44.7 19.7977 45.1 20.0977 45.3C20.3977 45.5 20.7977 45.6 21.1977 45.4L31.9977 39.6L42.8977 45.3C42.9977 45.4 43.1977 45.4 43.3977 45.4C43.5977 45.4 43.7977 45.3 43.9977 45.2C44.1977 45 44.3977 44.7 44.2977 44.3Z" fill="white"/>
</g>
</svg>
