<svg width="96" height="6" viewBox="0 0 96 6" fill="none" xmlns="http://www.w3.org/2000/svg">
<g id="Group 1452">
<rect id="Rectangle 307" y="6" width="6" height="6" transform="rotate(-90 0 6)" fill="#01AFEC"/>
<rect id="Rectangle 308" opacity="0.9" x="10" y="6" width="6" height="6" transform="rotate(-90 10 6)" fill="#01AFEC"/>
<rect id="Rectangle 309" opacity="0.8" x="20" y="6" width="6" height="6" transform="rotate(-90 20 6)" fill="#01AFEC"/>
<rect id="Rectangle 310" opacity="0.7" x="30" y="6" width="6" height="6" transform="rotate(-90 30 6)" fill="#01AFEC"/>
<rect id="Rectangle 311" opacity="0.6" x="40" y="6" width="6" height="6" transform="rotate(-90 40 6)" fill="#01AFEC"/>
<rect id="Rectangle 312" opacity="0.5" x="50" y="6" width="6" height="6" transform="rotate(-90 50 6)" fill="#01AFEC"/>
<rect id="Rectangle 313" opacity="0.4" x="60" y="6" width="6" height="6" transform="rotate(-90 60 6)" fill="#01AFEC"/>
<rect id="Rectangle 314" opacity="0.3" x="70" y="6" width="6" height="6" transform="rotate(-90 70 6)" fill="#01AFEC"/>
<rect id="Rectangle 315" opacity="0.2" x="80" y="6" width="6" height="6" transform="rotate(-90 80 6)" fill="#01AFEC"/>
<rect id="Rectangle 316" opacity="0.1" x="90" y="6" width="6" height="6" transform="rotate(-90 90 6)" fill="#01AFEC"/>
</g>
</svg>
