<svg width="44" height="30" viewBox="0 0 44 30" fill="none" xmlns="http://www.w3.org/2000/svg">
<g id="Group">
<path id="Vector" d="M37.4563 16.2163H29.2468C27.913 16.34 26.6465 16.8589 25.6094 17.7067C27.5978 19.7023 28.713 22.4054 28.7102 25.2225C28.7102 25.6661 28.6799 26.0841 28.6243 26.483L28.7899 26.4835C29.1407 26.4835 29.5017 26.4816 29.8694 26.4816H36.8351C37.2014 26.4816 37.5628 26.4835 37.9137 26.4835C41.1359 26.4835 43.5974 26.3184 43.5974 22.9507C43.5969 19.4251 40.8998 16.5307 37.4563 16.2163Z" fill="white"/>
<path id="Vector_2" d="M33.3538 15.2008C36.5803 15.2008 39.1959 12.5852 39.1959 9.35868C39.1959 6.13219 36.5803 3.5166 33.3538 3.5166C30.1273 3.5166 27.5117 6.13219 27.5117 9.35868C27.5117 12.5852 30.1273 15.2008 33.3538 15.2008Z" fill="white"/>
<path id="Vector_3" d="M10.4885 14.596C11.4293 15.0203 12.4719 15.2579 13.5706 15.2579C14.6693 15.2579 15.7124 15.0198 16.6536 14.596C19.2639 13.419 21.0821 10.7958 21.0821 7.74736C21.0821 3.59824 17.7192 0.23584 13.5711 0.23584C9.4234 0.23584 6.06004 3.59824 6.06004 7.74736C6.05956 10.7958 7.8778 13.419 10.4885 14.596ZM18.8482 16.5645H8.29252C3.86596 16.9691 0.398438 20.6901 0.398438 25.2227C0.398438 29.5518 3.56212 29.7645 7.705 29.7645C8.1562 29.7645 8.62036 29.7621 9.09364 29.7621H18.0485C18.5194 29.7621 18.984 29.7645 19.4357 29.7645C23.1581 29.7645 26.0904 29.5912 26.6463 26.4146C26.7092 26.056 26.7432 25.6614 26.7432 25.2232C26.7458 22.9576 25.8608 20.7812 24.278 19.1603C22.8361 17.6744 20.91 16.7536 18.8482 16.5645Z" fill="white"/>
</g>
</svg>
